<?xml version="1.0" encoding="UTF-8"?>
<svg xmlns="http://www.w3.org/2000/svg" xmlns:xlink="http://www.w3.org/1999/xlink" width="50px" height="36px" viewBox="0 0 49 36" version="1.1">
<g id="surface1">
<path style=" stroke:none;fill-rule:nonzero;fill:rgb(0%,0%,0%);fill-opacity:1;" d="M 6.582031 0.015625 C 6.574219 0.0234375 6.335938 0.0585938 6.054688 0.09375 C 5.054688 0.214844 4.3125 0.429688 3.503906 0.828125 C 2.691406 1.230469 2.007812 1.78125 1.585938 2.378906 C 1.253906 2.847656 0.925781 3.652344 0.824219 4.25 C 0.457031 6.371094 1.972656 8.65625 4.363281 9.578125 C 4.859375 9.769531 5.664062 10.039062 7.371094 10.574219 C 9.492188 11.238281 10.546875 11.625 11.675781 12.15625 C 12.859375 12.707031 14.027344 13.433594 15.042969 14.246094 C 15.648438 14.734375 18.03125 17.125 18.03125 17.25 C 18.03125 17.363281 15.964844 19.433594 15.410156 19.875 C 14.445312 20.648438 13.558594 21.21875 12.5 21.757812 C 11.117188 22.453125 10.082031 22.839844 7.195312 23.738281 C 5.902344 24.140625 4.570312 24.597656 4.226562 24.761719 C 3.433594 25.136719 2.59375 25.796875 2.089844 26.457031 C 1.449219 27.285156 1.125 28.128906 1.082031 29.058594 C 1.054688 29.636719 1.109375 30.039062 1.289062 30.578125 C 1.542969 31.34375 1.84375 31.824219 2.425781 32.390625 C 3.300781 33.230469 4.582031 33.808594 6.125 34.046875 C 6.660156 34.128906 7.894531 34.140625 8.402344 34.066406 C 9.519531 33.90625 10.351562 33.664062 11.121094 33.285156 C 12.933594 32.390625 14.078125 30.925781 14.1875 29.367188 C 14.21875 28.917969 14.144531 28.472656 13.933594 27.855469 C 13.6875 27.136719 13.347656 26.542969 12.96875 26.1875 C 12.789062 26.015625 12.210938 25.582031 11.964844 25.429688 C 11.847656 25.359375 11.753906 25.292969 11.753906 25.273438 C 11.753906 25.214844 12.617188 24.671875 13.121094 24.417969 C 13.402344 24.273438 14.1875 23.917969 14.863281 23.625 C 17.941406 22.289062 19.191406 21.683594 21.179688 20.578125 L 21.972656 20.132812 L 22.234375 20.28125 C 22.375 20.363281 24.199219 21.402344 26.28125 22.597656 C 39.121094 29.957031 38.855469 29.808594 39.71875 30.117188 C 40.695312 30.464844 41.570312 30.617188 42.714844 30.644531 C 43.914062 30.675781 44.835938 30.5625 45.839844 30.25 C 46.574219 30.027344 47.640625 29.535156 47.558594 29.457031 C 47.542969 29.441406 43.167969 26.84375 37.839844 23.6875 C 27.121094 17.335938 27.027344 17.277344 27.027344 17.222656 C 27.027344 17.199219 29.011719 16 31.441406 14.554688 C 47.972656 4.714844 47.851562 4.789062 47.835938 4.738281 C 47.820312 4.679688 47.101562 4.308594 46.675781 4.140625 C 45.558594 3.695312 44.222656 3.5 42.972656 3.589844 C 41.710938 3.6875 40.503906 3.972656 39.308594 4.46875 C 38.710938 4.710938 38.585938 4.777344 35.898438 6.316406 C 33.679688 7.585938 25.257812 12.382812 22.941406 13.695312 L 22.015625 14.226562 L 21.410156 13.894531 C 19.804688 13.015625 17.203125 11.746094 15.089844 10.800781 C 12.636719 9.707031 12.804688 9.789062 11.914062 9.238281 C 11.695312 9.109375 11.523438 8.984375 11.53125 8.96875 C 11.539062 8.953125 11.679688 8.832031 11.847656 8.707031 C 12.214844 8.429688 12.941406 7.683594 13.15625 7.359375 C 13.515625 6.828125 13.785156 6.113281 13.863281 5.484375 C 14.058594 3.863281 13.007812 2.128906 11.207031 1.085938 C 10.277344 0.550781 9.214844 0.21875 8.078125 0.117188 C 7.8125 0.09375 7.507812 0.0585938 7.390625 0.0351562 C 7.183594 0 6.609375 -0.015625 6.582031 0.015625 Z M 7.734375 2.222656 C 9.222656 2.429688 10.277344 3.117188 10.796875 4.222656 C 11.148438 4.972656 11.089844 5.976562 10.652344 6.699219 C 10.246094 7.371094 9.585938 7.867188 8.785156 8.085938 C 8.515625 8.164062 8.382812 8.171875 7.65625 8.171875 C 6.875 8.171875 6.8125 8.167969 6.449219 8.066406 C 5.257812 7.730469 4.222656 6.933594 3.75 5.972656 C 3.460938 5.378906 3.40625 4.710938 3.613281 4.167969 C 3.75 3.796875 4.085938 3.300781 4.382812 3.027344 C 5.097656 2.363281 6.425781 2.042969 7.734375 2.222656 Z M 8.5 25.980469 C 9.3125 26.070312 9.90625 26.339844 10.4375 26.84375 C 11.167969 27.539062 11.476562 28.546875 11.246094 29.492188 C 11.179688 29.792969 10.957031 30.234375 10.730469 30.535156 C 10.238281 31.1875 9.425781 31.660156 8.382812 31.898438 C 7.894531 32.015625 6.976562 32.042969 6.46875 31.953125 C 5.765625 31.835938 5.179688 31.589844 4.75 31.230469 C 4.511719 31.027344 4.136719 30.5625 3.984375 30.269531 C 3.507812 29.363281 3.777344 28.242188 4.695312 27.304688 C 5.34375 26.652344 6.308594 26.148438 7.160156 26.023438 C 7.75 25.933594 8.03125 25.925781 8.5 25.980469 Z M 8.5 25.980469 "/>
</g>
</svg>
