<svg width="26" height="26" viewBox="0 0 26 26" fill="none" xmlns="http://www.w3.org/2000/svg">
<path d="M15.2779 12.3943C15.133 12.3539 14.2169 12.0018 14.7893 10.5179H14.7811C16.2734 9.20727 17.4138 7.09837 17.4138 5.02211C17.4138 1.8296 14.9243 0.156006 12.0309 0.156006C9.13574 0.156006 6.6599 1.82883 6.6599 5.02211C6.6599 7.10692 7.7939 9.22437 9.29527 10.5318C9.8805 11.8409 8.83401 12.3267 8.61523 12.3951C5.58515 13.3295 2.03 15.0326 2.03 16.714V17.3444C2.03 19.6352 7.23875 20.156 12.0592 20.156C16.8869 20.156 22.03 19.6352 22.03 17.3444V16.714C22.03 14.9821 18.4575 13.2922 15.2779 12.3943Z" fill="black" fill-opacity="0.5"/>
</svg>
